<?xml version="1.0" encoding="UTF-8"?>
<svg xmlns="http://www.w3.org/2000/svg" viewBox="0 0 1000 750" width="1000" height="750">
  <defs>
    <style>
      .title { font-family: 'Cinzel', 'Georgia', serif; }
      .label { font-family: 'Georgia', serif; }
      .street-label { font-family: 'Georgia', serif; font-style: italic; }
      .bldg-label {
        font-family: 'Cinzel', 'Georgia', serif;
        font-weight: bold;
        fill: #2a1808;
        stroke: #e8d5b7;
        stroke-width: 5;
        paint-order: stroke fill;
      }
      .bldg-sub {
        font-family: 'Georgia', serif;
        font-style: italic;
        fill: #4a3018;
        stroke: #e8d5b7;
        stroke-width: 3;
        paint-order: stroke fill;
      }
    </style>
  </defs>

  <!-- ===== PARCHMENT BACKGROUND ===== -->
  <rect width="1000" height="750" fill="#e8d5b7"/>
  <circle cx="150" cy="600" r="120" fill="#d8c5a0" opacity="0.3"/>
  <circle cx="800" cy="200" r="100" fill="#d8c5a0" opacity="0.2"/>
  <circle cx="480" cy="400" r="180" fill="#dcc8a5" opacity="0.15"/>

  <!-- Decorative Border -->
  <rect x="12" y="12" width="976" height="726" fill="none" stroke="#5a3a1e" stroke-width="3" rx="4"/>
  <rect x="18" y="18" width="964" height="714" fill="none" stroke="#5a3a1e" stroke-width="1" rx="2"/>
  <circle cx="18" cy="18" r="5" fill="#5a3a1e"/>
  <circle cx="982" cy="18" r="5" fill="#5a3a1e"/>
  <circle cx="18" cy="732" r="5" fill="#5a3a1e"/>
  <circle cx="982" cy="732" r="5" fill="#5a3a1e"/>

  <!-- ===== TITLE CARTOUCHE ===== -->
  <rect x="340" y="24" width="320" height="56" rx="8" fill="#e8d5b7" stroke="#5a3a1e" stroke-width="2"/>
  <line x1="360" y1="30" x2="640" y2="30" stroke="#5a3a1e" stroke-width="0.5"/>
  <line x1="360" y1="74" x2="640" y2="74" stroke="#5a3a1e" stroke-width="0.5"/>
  <text x="500" y="54" text-anchor="middle" class="title" font-size="28" fill="#3a2510" font-weight="bold" letter-spacing="8">NENYRM</text>
  <text x="500" y="70" text-anchor="middle" class="label" font-size="10" fill="#7a5a30" font-style="italic">Poble al peu de les Muntanyes Arbormark · Regne d'Alenian</text>

  <!-- ===== TERRAIN OUTSIDE WALLS ===== -->

  <!-- NW Fields -->
  <g opacity="0.4">
    <rect x="38" y="140" width="95" height="65" fill="none" stroke="#7a8a4a" stroke-width="1" rx="3"/>
    <line x1="43" y1="150" x2="128" y2="150" stroke="#7a8a4a" stroke-width="0.5"/>
    <line x1="43" y1="160" x2="128" y2="160" stroke="#7a8a4a" stroke-width="0.5"/>
    <line x1="43" y1="170" x2="128" y2="170" stroke="#7a8a4a" stroke-width="0.5"/>
    <line x1="43" y1="180" x2="128" y2="180" stroke="#7a8a4a" stroke-width="0.5"/>
    <line x1="43" y1="190" x2="128" y2="190" stroke="#7a8a4a" stroke-width="0.5"/>
  </g>
  <text x="85" y="220" text-anchor="middle" class="label" font-size="9" fill="#5a6a2a" font-style="italic">Camps de blat</text>

  <!-- SW Fields -->
  <g opacity="0.4">
    <rect x="38" y="480" width="95" height="80" fill="none" stroke="#7a8a4a" stroke-width="1" rx="3"/>
    <line x1="43" y1="492" x2="128" y2="492" stroke="#7a8a4a" stroke-width="0.5"/>
    <line x1="43" y1="504" x2="128" y2="504" stroke="#7a8a4a" stroke-width="0.5"/>
    <line x1="43" y1="516" x2="128" y2="516" stroke="#7a8a4a" stroke-width="0.5"/>
    <line x1="43" y1="528" x2="128" y2="528" stroke="#7a8a4a" stroke-width="0.5"/>
    <line x1="43" y1="540" x2="128" y2="540" stroke="#7a8a4a" stroke-width="0.5"/>
  </g>
  <text x="85" y="578" text-anchor="middle" class="label" font-size="9" fill="#5a6a2a" font-style="italic">Horts</text>

  <!-- SE Fields -->
  <g opacity="0.4">
    <rect x="660" y="480" width="100" height="70" fill="none" stroke="#7a8a4a" stroke-width="1" rx="3"/>
    <line x1="665" y1="490" x2="755" y2="490" stroke="#7a8a4a" stroke-width="0.5"/>
    <line x1="665" y1="500" x2="755" y2="500" stroke="#7a8a4a" stroke-width="0.5"/>
    <line x1="665" y1="510" x2="755" y2="510" stroke="#7a8a4a" stroke-width="0.5"/>
    <line x1="665" y1="520" x2="755" y2="520" stroke="#7a8a4a" stroke-width="0.5"/>
    <line x1="665" y1="530" x2="755" y2="530" stroke="#7a8a4a" stroke-width="0.5"/>
  </g>
  <text x="710" y="568" text-anchor="middle" class="label" font-size="9" fill="#5a6a2a" font-style="italic">Camps</text>

  <!-- NE trees (Bosc de Firnost) -->
  <circle cx="830" cy="145" r="13" fill="#3a6a2a" opacity="0.5"/>
  <circle cx="855" cy="160" r="11" fill="#2d5a22" opacity="0.55"/>
  <circle cx="870" cy="138" r="12" fill="#3a6a2a" opacity="0.45"/>
  <circle cx="895" cy="155" r="10" fill="#2d5a22" opacity="0.5"/>
  <circle cx="848" cy="130" r="9" fill="#4a7a3a" opacity="0.4"/>
  <text x="863" y="115" text-anchor="middle" class="label" font-size="9" fill="#3a5a1e" font-style="italic">Bosc de Firnost</text>

  <!-- Trees around stem exterior -->
  <circle cx="340" cy="510" r="10" fill="#3a6a2a" opacity="0.45"/>
  <circle cx="325" cy="535" r="8" fill="#2d5a22" opacity="0.5"/>
  <circle cx="345" cy="555" r="9" fill="#4a7a3a" opacity="0.4"/>
  <circle cx="648" cy="508" r="9" fill="#3a6a2a" opacity="0.45"/>
  <circle cx="638" cy="535" r="8" fill="#2d5a22" opacity="0.4"/>
  <circle cx="655" cy="555" r="10" fill="#4a7a3a" opacity="0.4"/>

  <!-- South trees -->
  <circle cx="450" cy="700" r="10" fill="#3a6a2a" opacity="0.4"/>
  <circle cx="480" cy="710" r="8" fill="#2d5a22" opacity="0.45"/>
  <circle cx="530" cy="705" r="9" fill="#3a6a2a" opacity="0.4"/>

  <!-- Trees left of T-bar -->
  <circle cx="95" cy="300" r="10" fill="#3a6a2a" opacity="0.45"/>
  <circle cx="115" cy="320" r="9" fill="#2d5a22" opacity="0.5"/>
  <circle cx="78" cy="325" r="8" fill="#3a6a2a" opacity="0.4"/>

  <!-- Trees right of T-bar -->
  <circle cx="835" cy="340" r="9" fill="#3a6a2a" opacity="0.4"/>
  <circle cx="855" cy="360" r="8" fill="#2d5a22" opacity="0.4"/>

  <!-- ===== ROADS OUTSIDE TOWN ===== -->
  <path d="M 755 378 Q 830 375, 910 368 Q 955 364, 980 360"
        stroke="#b8a070" stroke-width="20" fill="none" stroke-linecap="round" opacity="0.6"/>
  <text x="885" y="352" text-anchor="middle" class="label" font-size="10" fill="#6b4226" font-style="italic">Cap a les Muntanyes &#x2192;</text>

  <path d="M 155 382 Q 100 385, 55 390 Q 30 393, 18 395"
        stroke="#b8a070" stroke-width="20" fill="none" stroke-linecap="round" opacity="0.6"/>
  <text x="85" y="415" text-anchor="middle" class="label" font-size="10" fill="#6b4226" font-style="italic">&#x2190; Cap a Alenian</text>

  <path d="M 490 660 Q 485 685, 478 715 Q 475 730, 472 740"
        stroke="#b8a070" stroke-width="10" fill="none" stroke-linecap="round" opacity="0.4"/>

  <!-- Mountains (NE corner) -->
  <g opacity="0.45">
    <polygon points="895,100 910,72 925,100" fill="none" stroke="#7a5a30" stroke-width="1.5"/>
    <polygon points="915,100 935,65 955,100" fill="none" stroke="#7a5a30" stroke-width="1.5"/>
    <polygon points="940,100 952,78 965,100" fill="none" stroke="#7a5a30" stroke-width="1.5"/>
    <polygon points="875,100 885,82 895,100" fill="none" stroke="#7a5a30" stroke-width="1.5"/>
    <polygon points="910,72 905,80 915,80" fill="#c0b8a0" opacity="0.4"/>
    <polygon points="935,65 929,76 941,76" fill="#c0b8a0" opacity="0.4"/>
  </g>
  <text x="925" y="106" text-anchor="middle" class="label" font-size="9" fill="#7a5a30" font-style="italic">Muntanyes Arbormark</text>

  <!-- ===== RIVER — flows through town ===== -->
  <!-- Outer glow -->
  <path d="M 975 175 Q 870 165, 760 195 Q 680 218, 580 230
           Q 480 242, 420 235 Q 330 225, 250 238
           Q 170 250, 100 255 Q 50 258, 18 255"
        stroke="#6a9ab8" stroke-width="12" fill="none" stroke-linecap="round" opacity="0.3"/>
  <!-- Main water -->
  <path d="M 975 175 Q 870 165, 760 195 Q 680 218, 580 230
           Q 480 242, 420 235 Q 330 225, 250 238
           Q 170 250, 100 255 Q 50 258, 18 255"
        stroke="#7aaed0" stroke-width="7" fill="none" stroke-linecap="round" opacity="0.55"/>
  <!-- Highlight -->
  <path d="M 975 175 Q 870 165, 760 195 Q 680 218, 580 230
           Q 480 242, 420 235 Q 330 225, 250 238
           Q 170 250, 100 255 Q 50 258, 18 255"
        stroke="#a0d0e8" stroke-width="3" fill="none" stroke-linecap="round" opacity="0.4"/>

  <!-- Bridge where Carrer de la Font crosses the river -->
  <rect x="457" y="228" width="28" height="18" fill="#c9a050" stroke="#5a3a1e" stroke-width="2" rx="3"/>
  <line x1="460" y1="228" x2="460" y2="246" stroke="#5a3a1e" stroke-width="1" opacity="0.4"/>
  <line x1="482" y1="228" x2="482" y2="246" stroke="#5a3a1e" stroke-width="1" opacity="0.4"/>

  <!-- ======================================================== -->
  <!-- ===== TOWN WALL — T-SHAPE with rounded corners     ===== -->
  <!-- ======================================================== -->

  <!-- Upper wall: west gate top → clockwise → east gate top -->
  <path d="M 165 348
           L 165 260
           Q 165 168, 270 165
           L 685 163
           Q 752 163, 752 250
           L 755 348"
        fill="none" stroke="#5a3a1e" stroke-width="5" stroke-linecap="round" stroke-linejoin="round"/>

  <!-- Lower wall: east gate bottom → clockwise → west gate bottom -->
  <path d="M 755 408
           L 750 440
           C 750 485, 660 485, 618 520
           L 618 600
           Q 618 652, 555 652
           L 438 650
           Q 375 650, 375 600
           L 372 520
           C 372 485, 285 485, 172 440
           L 165 408"
        fill="none" stroke="#5a3a1e" stroke-width="5" stroke-linecap="round" stroke-linejoin="round"/>

  <!-- Palisade posts -->
  <g fill="#5a3a1e">
    <!-- Upper wall: left side -->
    <circle cx="165" cy="310" r="3"/><circle cx="165" cy="270" r="3"/>
    <!-- NW curve -->
    <circle cx="168" cy="220" r="3"/><circle cx="185" cy="185" r="3"/>
    <circle cx="225" cy="170" r="3"/>
    <!-- Top wall -->
    <circle cx="340" cy="165" r="3"/><circle cx="420" cy="163" r="3"/>
    <circle cx="520" cy="163" r="3"/><circle cx="620" cy="163" r="3"/>
    <!-- NE curve -->
    <circle cx="720" cy="168" r="3"/><circle cx="745" cy="190" r="3"/>
    <!-- Right side upper -->
    <circle cx="752" cy="250" r="3"/><circle cx="754" cy="310" r="3"/>
    <!-- Lower wall: right side below gate -->
    <circle cx="750" cy="445" r="3"/>
    <!-- Right inner curve -->
    <circle cx="740" cy="470" r="3"/><circle cx="700" cy="485" r="3"/>
    <circle cx="660" cy="490" r="3"/><circle cx="630" cy="505" r="3"/>
    <!-- Right stem -->
    <circle cx="618" cy="550" r="3"/><circle cx="618" cy="600" r="3"/>
    <!-- Bottom-right curve -->
    <circle cx="615" cy="635" r="3"/><circle cx="580" cy="650" r="3"/>
    <!-- Bottom -->
    <circle cx="520" cy="652" r="3"/><circle cx="460" cy="651" r="3"/>
    <!-- Bottom-left curve -->
    <circle cx="400" cy="648" r="3"/><circle cx="378" cy="630" r="3"/>
    <!-- Left stem -->
    <circle cx="375" cy="600" r="3"/><circle cx="373" cy="550" r="3"/>
    <!-- Left inner curve -->
    <circle cx="375" cy="505" r="3"/><circle cx="340" cy="490" r="3"/>
    <circle cx="295" cy="485" r="3"/><circle cx="240" cy="475" r="3"/>
    <circle cx="195" cy="458" r="3"/>
    <!-- Left side below gate -->
    <circle cx="168" cy="440" r="3"/>
    <circle cx="165" cy="310" r="3"/>
  </g>

  <!-- East Gate Towers -->
  <rect x="748" y="335" width="16" height="18" fill="#8a6a30" stroke="#5a3a1e" stroke-width="2" rx="2"/>
  <rect x="748" y="403" width="16" height="18" fill="#8a6a30" stroke="#5a3a1e" stroke-width="2" rx="2"/>

  <!-- West Gate Towers -->
  <rect x="155" y="335" width="16" height="18" fill="#8a6a30" stroke="#5a3a1e" stroke-width="2" rx="2"/>
  <rect x="155" y="403" width="16" height="18" fill="#8a6a30" stroke="#5a3a1e" stroke-width="2" rx="2"/>

  <!-- ===== STREETS ===== -->

  <!-- Carrer Major — east-west through both gates -->
  <path d="M 158 380 L 755 378"
        stroke="#d4b896" stroke-width="26" fill="none" stroke-linecap="round" opacity="0.65"/>

  <!-- Carrer de la Font — north-south, with bridge over river -->
  <path d="M 470 168 L 475 225"
        stroke="#d4b896" stroke-width="20" fill="none" stroke-linecap="round" opacity="0.6"/>
  <path d="M 475 250 L 478 340"
        stroke="#d4b896" stroke-width="20" fill="none" stroke-linecap="round" opacity="0.6"/>
  <path d="M 485 420 L 490 648"
        stroke="#d4b896" stroke-width="20" fill="none" stroke-linecap="round" opacity="0.6"/>

  <!-- Plaça Major -->
  <path d="M 418 340 Q 415 370, 418 400 Q 435 425, 480 428
           Q 525 425, 540 400 Q 543 370, 540 340
           Q 525 325, 480 322 Q 435 325, 418 340 Z"
        fill="#d4b896" opacity="0.7"/>

  <!-- Carreró del Pou — NW of square -->
  <path d="M 418 345 Q 360 310, 310 280"
        stroke="#d4b896" stroke-width="12" fill="none" stroke-linecap="round" opacity="0.4"/>

  <!-- ===== ALL BUILDINGS ===== -->

  <!-- ============ NORTH SIDE — above river ============ -->

  <!-- Houses north of river, west side -->
  <rect x="225" y="192" width="40" height="28" fill="#c9a050" stroke="#5a3a1e" stroke-width="1.5" rx="2" transform="rotate(-5, 245, 206)"/>
  <rect x="270" y="185" width="35" height="30" fill="#c9a050" stroke="#5a3a1e" stroke-width="1.5" rx="2" transform="rotate(3, 287, 200)"/>
  <rect x="320" y="188" width="38" height="28" fill="#c9a050" stroke="#5a3a1e" stroke-width="1.5" rx="2" transform="rotate(-2, 339, 202)"/>
  <rect x="365" y="182" width="35" height="30" fill="#c9a050" stroke="#5a3a1e" stroke-width="1.5" rx="2" transform="rotate(4, 382, 197)"/>
  <rect x="410" y="185" width="38" height="32" fill="#c9a050" stroke="#5a3a1e" stroke-width="1.5" rx="2" transform="rotate(-1, 429, 201)"/>

  <!-- Houses north of river, east side -->
  <rect x="498" y="185" width="38" height="30" fill="#c9a050" stroke="#5a3a1e" stroke-width="1.5" rx="2" transform="rotate(5, 517, 200)"/>
  <rect x="542" y="188" width="35" height="28" fill="#c9a050" stroke="#5a3a1e" stroke-width="1.5" rx="2" transform="rotate(-3, 559, 202)"/>
  <rect x="585" y="192" width="40" height="30" fill="#c9a050" stroke="#5a3a1e" stroke-width="1.5" rx="2" transform="rotate(2, 605, 207)"/>
  <rect x="632" y="190" width="35" height="28" fill="#c9a050" stroke="#5a3a1e" stroke-width="1.5" rx="2" transform="rotate(-4, 649, 204)"/>
  <rect x="680" y="188" width="38" height="30" fill="#c9a050" stroke="#5a3a1e" stroke-width="1.5" rx="2" transform="rotate(3, 699, 203)"/>
  <rect x="722" y="195" width="24" height="40" fill="#c9a050" stroke="#5a3a1e" stroke-width="1.5" rx="2"/>

  <!-- ============ BETWEEN RIVER AND CARRER MAJOR — north side of road ============ -->

  <!-- West houses -->
  <rect x="195" y="280" width="42" height="35" fill="#c9a050" stroke="#5a3a1e" stroke-width="1.5" rx="2" transform="rotate(-3, 216, 297)"/>
  <rect x="195" y="322" width="45" height="38" fill="#c9a050" stroke="#5a3a1e" stroke-width="1.5" rx="2" transform="rotate(2, 217, 341)"/>
  <rect x="245" y="285" width="38" height="32" fill="#c9a050" stroke="#5a3a1e" stroke-width="1.5" rx="2" transform="rotate(4, 264, 301)"/>
  <rect x="248" y="325" width="40" height="35" fill="#c9a050" stroke="#5a3a1e" stroke-width="1.5" rx="2" transform="rotate(-2, 268, 342)"/>

  <!-- Houses along Carreró del Pou -->
  <rect x="275" y="258" width="38" height="28" fill="#c9a050" stroke="#5a3a1e" stroke-width="1.5" rx="2" transform="rotate(-4, 294, 272)"/>

  <!-- L'APOTECARI -->
  <rect x="330" y="305" width="72" height="48" fill="#c9a050" stroke="#5a3a1e" stroke-width="2" rx="2" transform="rotate(2, 366, 329)"/>
  <line x1="335" y1="329" x2="397" y2="330" stroke="#5a3a1e" stroke-width="1.5" stroke-dasharray="4,3"/>
  <rect x="375" y="349" width="8" height="5" fill="#7a5020" stroke="#5a3a1e" stroke-width="0.8" rx="1"/>
  <!-- Houses near apotecari -->
  <rect x="330" y="262" width="42" height="30" fill="#c9a050" stroke="#5a3a1e" stroke-width="1.5" rx="2" transform="rotate(3, 351, 277)"/>
  <rect x="380" y="268" width="36" height="32" fill="#c9a050" stroke="#5a3a1e" stroke-width="1.5" rx="2" transform="rotate(-1, 398, 284)"/>

  <!-- Houses between square and river -->
  <rect x="420" y="262" width="40" height="35" fill="#c9a050" stroke="#5a3a1e" stroke-width="1.5" rx="2" transform="rotate(1, 440, 279)"/>
  <rect x="498" y="262" width="42" height="36" fill="#c9a050" stroke="#5a3a1e" stroke-width="1.5" rx="2" transform="rotate(-2, 519, 280)"/>

  <!-- LA FERRETERIA -->
  <rect x="550" y="305" width="78" height="50" fill="#c9a050" stroke="#5a3a1e" stroke-width="2" rx="2" transform="rotate(-1, 589, 330)"/>
  <line x1="555" y1="330" x2="623" y2="329" stroke="#5a3a1e" stroke-width="1.5" stroke-dasharray="4,3"/>
  <rect x="580" y="351" width="8" height="5" fill="#7a5020" stroke="#5a3a1e" stroke-width="0.8" rx="1"/>
  <!-- Houses around ferreteria -->
  <rect x="548" y="265" width="40" height="30" fill="#c9a050" stroke="#5a3a1e" stroke-width="1.5" rx="2" transform="rotate(-3, 568, 280)"/>
  <rect x="595" y="260" width="35" height="32" fill="#c9a050" stroke="#5a3a1e" stroke-width="1.5" rx="2" transform="rotate(4, 612, 276)"/>
  <rect x="632" y="300" width="38" height="34" fill="#c9a050" stroke="#5a3a1e" stroke-width="1.5" rx="2" transform="rotate(3, 651, 317)"/>
  <rect x="635" y="258" width="35" height="30" fill="#c9a050" stroke="#5a3a1e" stroke-width="1.5" rx="2" transform="rotate(-5, 652, 273)"/>

  <!-- NE houses -->
  <rect x="680" y="260" width="38" height="32" fill="#c9a050" stroke="#5a3a1e" stroke-width="1.5" rx="2" transform="rotate(2, 699, 276)"/>
  <rect x="680" y="300" width="42" height="32" fill="#c9a050" stroke="#5a3a1e" stroke-width="1.5" rx="2" transform="rotate(-4, 701, 316)"/>
  <rect x="725" y="268" width="22" height="50" fill="#c9a050" stroke="#5a3a1e" stroke-width="1.5" rx="2"/>

  <!-- L'ESTABLE near east gate -->
  <rect x="685" y="340" width="55" height="28" fill="#c9a050" stroke="#5a3a1e" stroke-width="2" rx="2" transform="rotate(2, 712, 354)"/>
  <line x1="705" y1="342" x2="705" y2="366" stroke="#5a3a1e" stroke-width="0.8" opacity="0.4" transform="rotate(2, 705, 354)"/>
  <line x1="722" y1="342" x2="722" y2="366" stroke="#5a3a1e" stroke-width="0.8" opacity="0.4" transform="rotate(2, 722, 354)"/>

  <!-- ============ SOUTH SIDE OF CARRER MAJOR ============ -->

  <!-- Houses south of road, west area -->
  <rect x="238" y="395" width="35" height="32" fill="#c9a050" stroke="#5a3a1e" stroke-width="1.5" rx="2" transform="rotate(4, 255, 411)"/>
  <rect x="195" y="432" width="38" height="28" fill="#c9a050" stroke="#5a3a1e" stroke-width="1.5" rx="2" transform="rotate(-3, 214, 446)"/>
  <rect x="240" y="430" width="35" height="28" fill="#c9a050" stroke="#5a3a1e" stroke-width="1.5" rx="2" transform="rotate(2, 257, 444)"/>

  <!-- LA TAVERNA DEL LLOP GRIS -->
  <rect x="290" y="398" width="92" height="48" fill="#c9a050" stroke="#5a3a1e" stroke-width="2" rx="2" transform="rotate(-1, 336, 422)"/>
  <line x1="295" y1="422" x2="377" y2="421" stroke="#5a3a1e" stroke-width="1.5" stroke-dasharray="4,3"/>
  <rect x="356" y="398" width="10" height="6" fill="#7a5020" stroke="#5a3a1e" stroke-width="0.8" rx="1"/>

  <!-- CASA DEL BATLLE (south of square, east side) -->
  <rect x="555" y="390" width="90" height="52" fill="#b8944a" stroke="#5a3a1e" stroke-width="2.5" rx="2" transform="rotate(1.5, 600, 416)"/>
  <line x1="560" y1="416" x2="640" y2="417" stroke="#5a3a1e" stroke-width="1.5" stroke-dasharray="4,3"/>
  <rect x="596" y="390" width="10" height="6" fill="#7a5020" stroke="#5a3a1e" stroke-width="0.8" rx="1"/>
  <line x1="638" y1="395" x2="638" y2="372" stroke="#5a3a1e" stroke-width="1.5"/>
  <path d="M 638 372 L 653 378 L 638 384" fill="#8a2020" stroke="#6a1515" stroke-width="0.5"/>
  <!-- Houses near forn -->
  <rect x="652" y="395" width="32" height="30" fill="#c9a050" stroke="#5a3a1e" stroke-width="1.5" rx="2" transform="rotate(3, 668, 410)"/>
  <rect x="695" y="395" width="30" height="35" fill="#c9a050" stroke="#5a3a1e" stroke-width="1.5" rx="2" transform="rotate(2, 710, 412)"/>

  <!-- Houses in right inner curve area -->
  <rect x="650" y="435" width="35" height="28" fill="#c9a050" stroke="#5a3a1e" stroke-width="1.5" rx="2" transform="rotate(-3, 667, 449)"/>
  <rect x="690" y="440" width="36" height="28" fill="#c9a050" stroke="#5a3a1e" stroke-width="1.5" rx="2" transform="rotate(4, 708, 454)"/>
  <rect x="625" y="462" width="32" height="28" fill="#c9a050" stroke="#5a3a1e" stroke-width="1.5" rx="2" transform="rotate(-5, 641, 476)"/>

  <!-- Houses in left inner curve area -->
  <rect x="285" y="442" width="36" height="28" fill="#c9a050" stroke="#5a3a1e" stroke-width="1.5" rx="2" transform="rotate(-2, 303, 456)"/>
  <rect x="325" y="440" width="38" height="28" fill="#c9a050" stroke="#5a3a1e" stroke-width="1.5" rx="2" transform="rotate(3, 344, 454)"/>
  <rect x="210" y="440" width="32" height="26" fill="#c9a050" stroke="#5a3a1e" stroke-width="1.5" rx="2" transform="rotate(-4, 226, 453)"/>
  <rect x="248" y="444" width="30" height="25" fill="#c9a050" stroke="#5a3a1e" stroke-width="1.5" rx="2" transform="rotate(1, 263, 456)"/>

  <!-- ============ STEM — SOUTH EXTENSION ============ -->

  <!-- LA FUSTERIA — upper stem east side -->
  <rect x="548" y="495" width="52" height="38" fill="#c9a050" stroke="#5a3a1e" stroke-width="2" rx="2" transform="rotate(3, 574, 514)"/>
  <line x1="553" y1="514" x2="595" y2="515" stroke="#5a3a1e" stroke-width="1.5" stroke-dasharray="4,3"/>

  <!-- Houses upper stem -->
  <rect x="392" y="470" width="40" height="32" fill="#c9a050" stroke="#5a3a1e" stroke-width="1.5" rx="2" transform="rotate(-2, 412, 486)"/>
  <rect x="435" y="468" width="38" height="30" fill="#c9a050" stroke="#5a3a1e" stroke-width="1.5" rx="2" transform="rotate(3, 454, 483)"/>
  <rect x="550" y="540" width="38" height="28" fill="#c9a050" stroke="#5a3a1e" stroke-width="1.5" rx="2" transform="rotate(-4, 569, 554)"/>
  <rect x="395" y="510" width="36" height="28" fill="#c9a050" stroke="#5a3a1e" stroke-width="1.5" rx="2" transform="rotate(5, 413, 524)"/>

  <!-- Houses mid stem -->
  <rect x="445" y="545" width="48" height="38" fill="#c9a050" stroke="#5a3a1e" stroke-width="1.5" rx="2" transform="rotate(1, 469, 564)"/>
  <rect x="500" y="548" width="42" height="35" fill="#c9a050" stroke="#5a3a1e" stroke-width="1.5" rx="2" transform="rotate(-2, 521, 565)"/>
  <rect x="395" y="550" width="40" height="28" fill="#c9a050" stroke="#5a3a1e" stroke-width="1.5" rx="2" transform="rotate(-3, 415, 564)"/>
  <rect x="548" y="555" width="42" height="28" fill="#c9a050" stroke="#5a3a1e" stroke-width="1.5" rx="2" transform="rotate(4, 569, 569)"/>

  <!-- CASA DE LA TIETA — lower stem -->
  <rect x="420" y="602" width="72" height="42" fill="#c9a050" stroke="#5a3a1e" stroke-width="2" rx="2" transform="rotate(-1, 456, 623)"/>
  <line x1="425" y1="623" x2="487" y2="622" stroke="#5a3a1e" stroke-width="1.5" stroke-dasharray="4,3"/>
  <rect x="465" y="602" width="8" height="5" fill="#7a5020" stroke="#5a3a1e" stroke-width="0.8" rx="1"/>
  <circle cx="413" cy="617" r="4" fill="#5a8a3a" opacity="0.4"/>
  <circle cx="408" cy="627" r="3" fill="#4a7a2a" opacity="0.35"/>
  <!-- Houses near tieta -->
  <rect x="500" y="605" width="38" height="28" fill="#c9a050" stroke="#5a3a1e" stroke-width="1.5" rx="2" transform="rotate(3, 519, 619)"/>
  <rect x="545" y="602" width="35" height="28" fill="#c9a050" stroke="#5a3a1e" stroke-width="1.5" rx="2" transform="rotate(-2, 562, 616)"/>
  <rect x="390" y="604" width="24" height="32" fill="#c9a050" stroke="#5a3a1e" stroke-width="1.5" rx="2" transform="rotate(-4, 402, 620)"/>

  <!-- Well in square -->
  <circle cx="480" cy="390" r="10" fill="none" stroke="#4a6a7a" stroke-width="2"/>
  <circle cx="480" cy="390" r="5" fill="#7abaca" opacity="0.6"/>
  <circle cx="480" cy="390" r="2" fill="#4a7a9a"/>

  <!-- Trees inside town -->
  <circle cx="300" cy="248" r="5" fill="#4a8a3a" opacity="0.4"/>
  <circle cx="700" cy="245" r="5" fill="#4a8a3a" opacity="0.35"/>
  <circle cx="430" cy="508" r="4" fill="#4a8a3a" opacity="0.35"/>

  <!-- ============================================================= -->
  <!-- ===== LABELS (top layer — always visible over buildings) ===== -->
  <!-- ============================================================= -->

  <!-- River label -->
  <text x="330" y="218" text-anchor="middle" class="label" font-size="11" fill="#4a7a9a" font-style="italic"
        stroke="#e8d5b7" stroke-width="3" paint-order="stroke fill">Rierol d'Arbormark</text>

  <!-- Bridge label -->
  <text x="471" y="224" text-anchor="middle" class="label" font-size="7" fill="#5a3a1e"
        stroke="#e8d5b7" stroke-width="2" paint-order="stroke fill">Pont</text>

  <!-- Street labels -->
  <text x="260" y="370" text-anchor="middle" class="street-label" font-size="9" fill="#7a5a30"
        stroke="#e0ceac" stroke-width="3" paint-order="stroke fill">C. Major</text>
  <text x="680" y="370" text-anchor="middle" class="street-label" font-size="9" fill="#7a5a30"
        stroke="#e0ceac" stroke-width="3" paint-order="stroke fill">C. Major</text>
  <text x="462" y="290" text-anchor="middle" class="street-label" font-size="8" fill="#7a5a30"
        stroke="#e0ceac" stroke-width="3" paint-order="stroke fill"
        transform="rotate(-88, 462, 290)">C. de la Font</text>
  <text x="498" y="560" text-anchor="middle" class="street-label" font-size="8" fill="#7a5a30"
        stroke="#e0ceac" stroke-width="3" paint-order="stroke fill"
        transform="rotate(-88, 498, 560)">C. de la Font</text>
  <text x="340" y="290" text-anchor="middle" class="street-label" font-size="7" fill="#7a5a30"
        stroke="#e0ceac" stroke-width="2" paint-order="stroke fill"
        transform="rotate(-25, 340, 290)">Cr. del Pou</text>
  <!-- Gate labels -->
  <text x="775" y="385" text-anchor="start" class="bldg-label" font-size="12">Porta Est</text>
  <text x="95" y="385" text-anchor="middle" class="bldg-label" font-size="12">Porta Oest</text>

  <!-- Plaça Major -->
  <text x="480" y="350" text-anchor="middle" class="bldg-label" font-size="16">Placa</text>
  <text x="480" y="369" text-anchor="middle" class="bldg-label" font-size="16">Major</text>

  <!-- Well -->
  <text x="480" y="410" text-anchor="middle" class="label" font-size="9" fill="#4a6a7a"
        stroke="#e8d5b7" stroke-width="3" paint-order="stroke fill">Pou</text>

  <!-- L'Apotecari -->
  <text x="366" y="298" text-anchor="middle" class="bldg-label" font-size="17">L'Apotecari</text>

  <!-- La Ferreteria -->
  <text x="589" y="298" text-anchor="middle" class="bldg-label" font-size="17">La Ferreteria</text>

  <!-- La Taverna del Llop Gris -->
  <text x="336" y="414" text-anchor="middle" class="bldg-label" font-size="17">La Taverna</text>
  <text x="336" y="431" text-anchor="middle" class="bldg-sub" font-size="13">del Llop Gris</text>

  <!-- Casa del Batlle -->
  <text x="600" y="385" text-anchor="middle" class="bldg-label" font-size="17">Casa del Batlle</text>

  <!-- L'Estable -->
  <text x="712" y="336" text-anchor="middle" class="bldg-label" font-size="16">L'Estable</text>

  <!-- La Fusteria -->
  <text x="574" y="490" text-anchor="middle" class="bldg-label" font-size="16">La Fusteria</text>

  <!-- Casa de la Tieta -->
  <text x="456" y="598" text-anchor="middle" class="bldg-label" font-size="16">Casa de la Tieta</text>

  <!-- ===== COMPASS ROSE ===== -->
  <g transform="translate(72, 680)">
    <circle cx="0" cy="0" r="28" fill="none" stroke="#5a3a1e" stroke-width="1" opacity="0.5"/>
    <polygon points="0,-25 -4,-12 0,-15 4,-12" fill="#5a3a1e"/>
    <polygon points="0,-25 -4,-12 0,-8 4,-12" fill="none" stroke="#5a3a1e" stroke-width="0.5"/>
    <polygon points="0,25 -3,14 0,17 3,14" fill="#8a7a60"/>
    <polygon points="25,0 14,-3 17,0 14,3" fill="#8a7a60"/>
    <polygon points="-25,0 -14,-3 -17,0 -14,3" fill="#8a7a60"/>
    <line x1="-16" y1="-16" x2="16" y2="16" stroke="#5a3a1e" stroke-width="0.5" opacity="0.3"/>
    <line x1="16" y1="-16" x2="-16" y2="16" stroke="#5a3a1e" stroke-width="0.5" opacity="0.3"/>
    <text x="0" y="-32" text-anchor="middle" class="title" font-size="12" fill="#3a2510" font-weight="bold">N</text>
    <text x="0" y="40" text-anchor="middle" class="label" font-size="9" fill="#7a5a30">S</text>
    <text x="35" y="4" text-anchor="middle" class="label" font-size="9" fill="#7a5a30">E</text>
    <text x="-35" y="4" text-anchor="middle" class="label" font-size="9" fill="#7a5a30">O</text>
    <circle cx="0" cy="0" r="2.5" fill="#5a3a1e"/>
  </g>

</svg>
